<svg width="16" height="16" viewBox="0 0 16 16" fill="none" xmlns="http://www.w3.org/2000/svg">
<g clip-path="url(#clip0_1_943)">
<path d="M8.02538 1.44652C5.5215 1.44652 3.49639 3.47162 3.49639 5.97551C3.49639 9.37225 8.02538 14.3865 8.02538 14.3865C8.02538 14.3865 12.5544 9.37225 12.5544 5.97551C12.5544 3.47162 10.5293 1.44652 8.02538 1.44652ZM4.79039 5.97551C4.79039 4.18979 6.23967 2.74052 8.02538 2.74052C9.8111 2.74052 11.2604 4.18979 11.2604 5.97551C11.2604 7.83887 9.39702 10.6274 8.02538 12.3679C6.67963 10.6404 4.79039 7.81946 4.79039 5.97551Z" fill="#898989"/>
<path d="M8.02535 7.59309C8.91867 7.59309 9.64285 6.86891 9.64285 5.97559C9.64285 5.08227 8.91867 4.35809 8.02535 4.35809C7.13203 4.35809 6.40785 5.08227 6.40785 5.97559C6.40785 6.86891 7.13203 7.59309 8.02535 7.59309Z" fill="#898989"/>
</g>
<defs>
<clipPath id="clip0_1_943">
<rect width="15.528" height="15.528" fill="white" transform="translate(0.261391 0.152649)"/>
</clipPath>
</defs>
</svg>
